<mxfile host="app.diagrams.net" modified="2022-08-31T11:20:52.339Z" agent="5.0 (X11)" etag="xSsHnLZK85_vgWmmn0cd" version="20.2.7" type="github">
  <diagram id="ZST1g3XfQcUw49ejjWrS" name="Seite-1">
    <mxGraphModel dx="1416" dy="1847" grid="1" gridSize="10" guides="1" tooltips="1" connect="1" arrows="1" fold="1" page="1" pageScale="1" pageWidth="827" pageHeight="1169" math="0" shadow="0">
      <root>
        <mxCell id="0" />
        <mxCell id="1" parent="0" />
        <mxCell id="TvtBZgMa6HvbYzN-FQDM-1" value="" style="ellipse;whiteSpace=wrap;html=1;" parent="1" vertex="1">
          <mxGeometry x="520" y="400" width="40" height="40" as="geometry" />
        </mxCell>
        <mxCell id="TvtBZgMa6HvbYzN-FQDM-2" value="" style="ellipse;whiteSpace=wrap;html=1;" parent="1" vertex="1">
          <mxGeometry x="560" y="400" width="40" height="40" as="geometry" />
        </mxCell>
        <mxCell id="TvtBZgMa6HvbYzN-FQDM-4" value="Gelb" style="ellipse;whiteSpace=wrap;html=1;" parent="1" vertex="1">
          <mxGeometry x="520" y="360" width="40" height="40" as="geometry" />
        </mxCell>
        <mxCell id="TvtBZgMa6HvbYzN-FQDM-5" value="" style="ellipse;whiteSpace=wrap;html=1;" parent="1" vertex="1">
          <mxGeometry x="560" y="360" width="40" height="40" as="geometry" />
        </mxCell>
        <mxCell id="TvtBZgMa6HvbYzN-FQDM-6" value="" style="ellipse;whiteSpace=wrap;html=1;" parent="1" vertex="1">
          <mxGeometry x="620" y="400" width="40" height="40" as="geometry" />
        </mxCell>
        <mxCell id="TvtBZgMa6HvbYzN-FQDM-7" value="" style="ellipse;whiteSpace=wrap;html=1;" parent="1" vertex="1">
          <mxGeometry x="660" y="400" width="40" height="40" as="geometry" />
        </mxCell>
        <mxCell id="TvtBZgMa6HvbYzN-FQDM-8" value="Weiß" style="ellipse;whiteSpace=wrap;html=1;" parent="1" vertex="1">
          <mxGeometry x="620" y="360" width="40" height="40" as="geometry" />
        </mxCell>
        <mxCell id="TvtBZgMa6HvbYzN-FQDM-9" value="" style="ellipse;whiteSpace=wrap;html=1;" parent="1" vertex="1">
          <mxGeometry x="660" y="360" width="40" height="40" as="geometry" />
        </mxCell>
        <mxCell id="TvtBZgMa6HvbYzN-FQDM-10" value="" style="ellipse;whiteSpace=wrap;html=1;" parent="1" vertex="1">
          <mxGeometry x="720" y="400" width="40" height="40" as="geometry" />
        </mxCell>
        <mxCell id="TvtBZgMa6HvbYzN-FQDM-11" value="" style="ellipse;whiteSpace=wrap;html=1;" parent="1" vertex="1">
          <mxGeometry x="760" y="400" width="40" height="40" as="geometry" />
        </mxCell>
        <mxCell id="TvtBZgMa6HvbYzN-FQDM-12" value="Grün" style="ellipse;whiteSpace=wrap;html=1;" parent="1" vertex="1">
          <mxGeometry x="720" y="360" width="40" height="40" as="geometry" />
        </mxCell>
        <mxCell id="TvtBZgMa6HvbYzN-FQDM-13" value="" style="ellipse;whiteSpace=wrap;html=1;" parent="1" vertex="1">
          <mxGeometry x="760" y="360" width="40" height="40" as="geometry" />
        </mxCell>
        <mxCell id="TvtBZgMa6HvbYzN-FQDM-14" value="" style="ellipse;whiteSpace=wrap;html=1;" parent="1" vertex="1">
          <mxGeometry x="320" y="400" width="40" height="40" as="geometry" />
        </mxCell>
        <mxCell id="TvtBZgMa6HvbYzN-FQDM-15" value="" style="ellipse;whiteSpace=wrap;html=1;" parent="1" vertex="1">
          <mxGeometry x="360" y="400" width="40" height="40" as="geometry" />
        </mxCell>
        <mxCell id="TvtBZgMa6HvbYzN-FQDM-16" value="Rot" style="ellipse;whiteSpace=wrap;html=1;" parent="1" vertex="1">
          <mxGeometry x="320" y="360" width="40" height="40" as="geometry" />
        </mxCell>
        <mxCell id="TvtBZgMa6HvbYzN-FQDM-17" value="" style="ellipse;whiteSpace=wrap;html=1;" parent="1" vertex="1">
          <mxGeometry x="360" y="360" width="40" height="40" as="geometry" />
        </mxCell>
        <mxCell id="TvtBZgMa6HvbYzN-FQDM-18" value="" style="ellipse;whiteSpace=wrap;html=1;" parent="1" vertex="1">
          <mxGeometry x="420" y="400" width="40" height="40" as="geometry" />
        </mxCell>
        <mxCell id="TvtBZgMa6HvbYzN-FQDM-19" value="" style="ellipse;whiteSpace=wrap;html=1;" parent="1" vertex="1">
          <mxGeometry x="460" y="400" width="40" height="40" as="geometry" />
        </mxCell>
        <mxCell id="TvtBZgMa6HvbYzN-FQDM-20" value="Blau" style="ellipse;whiteSpace=wrap;html=1;" parent="1" vertex="1">
          <mxGeometry x="420" y="360" width="40" height="40" as="geometry" />
        </mxCell>
        <mxCell id="TvtBZgMa6HvbYzN-FQDM-21" value="" style="ellipse;whiteSpace=wrap;html=1;" parent="1" vertex="1">
          <mxGeometry x="460" y="360" width="40" height="40" as="geometry" />
        </mxCell>
        <mxCell id="TvtBZgMa6HvbYzN-FQDM-23" value="" style="rounded=0;whiteSpace=wrap;html=1;" parent="1" vertex="1">
          <mxGeometry x="395" y="70" width="10" height="240" as="geometry" />
        </mxCell>
        <mxCell id="TvtBZgMa6HvbYzN-FQDM-24" value="" style="rounded=0;whiteSpace=wrap;html=1;" parent="1" vertex="1">
          <mxGeometry x="375" y="270" width="50" height="10" as="geometry" />
        </mxCell>
        <mxCell id="TvtBZgMa6HvbYzN-FQDM-25" value="" style="rounded=0;whiteSpace=wrap;html=1;" parent="1" vertex="1">
          <mxGeometry x="335" y="70" width="10" height="240" as="geometry" />
        </mxCell>
        <mxCell id="TvtBZgMa6HvbYzN-FQDM-26" value="" style="rounded=0;whiteSpace=wrap;html=1;" parent="1" vertex="1">
          <mxGeometry x="315" y="270" width="50" height="10" as="geometry" />
        </mxCell>
        <mxCell id="TvtBZgMa6HvbYzN-FQDM-27" value="" style="rounded=0;whiteSpace=wrap;html=1;" parent="1" vertex="1">
          <mxGeometry x="455" y="70" width="10" height="240" as="geometry" />
        </mxCell>
        <mxCell id="TvtBZgMa6HvbYzN-FQDM-28" value="" style="rounded=0;whiteSpace=wrap;html=1;" parent="1" vertex="1">
          <mxGeometry x="435" y="185" width="50" height="10" as="geometry" />
        </mxCell>
        <mxCell id="TvtBZgMa6HvbYzN-FQDM-29" value="" style="rounded=0;whiteSpace=wrap;html=1;" parent="1" vertex="1">
          <mxGeometry x="195" y="85" width="10" height="240" as="geometry" />
        </mxCell>
        <mxCell id="TvtBZgMa6HvbYzN-FQDM-30" value="" style="rounded=0;whiteSpace=wrap;html=1;" parent="1" vertex="1">
          <mxGeometry x="175" y="285" width="50" height="10" as="geometry" />
        </mxCell>
        <mxCell id="TvtBZgMa6HvbYzN-FQDM-31" value="Drop" style="rounded=0;whiteSpace=wrap;html=1;" parent="1" vertex="1">
          <mxGeometry x="320" y="330" width="80" height="20" as="geometry" />
        </mxCell>
        <mxCell id="TvtBZgMa6HvbYzN-FQDM-32" value="Hybrid" style="rounded=0;whiteSpace=wrap;html=1;" parent="1" vertex="1">
          <mxGeometry x="420" y="330" width="80" height="20" as="geometry" />
        </mxCell>
        <mxCell id="TvtBZgMa6HvbYzN-FQDM-33" value="Viel Licht" style="rounded=0;whiteSpace=wrap;html=1;" parent="1" vertex="1">
          <mxGeometry x="520" y="330" width="80" height="20" as="geometry" />
        </mxCell>
        <mxCell id="TvtBZgMa6HvbYzN-FQDM-34" value="Strobo" style="rounded=0;whiteSpace=wrap;html=1;" parent="1" vertex="1">
          <mxGeometry x="620" y="330" width="80" height="20" as="geometry" />
        </mxCell>
        <mxCell id="TvtBZgMa6HvbYzN-FQDM-35" value="Ruhige W." style="rounded=0;whiteSpace=wrap;html=1;" parent="1" vertex="1">
          <mxGeometry x="720" y="330" width="80" height="20" as="geometry" />
        </mxCell>
        <mxCell id="FPELU7GVqC2fOOw68aCO-3" value="R" style="text;html=1;strokeColor=none;fillColor=none;align=center;verticalAlign=middle;whiteSpace=wrap;rounded=0;" parent="1" vertex="1">
          <mxGeometry x="310" y="40" width="60" height="30" as="geometry" />
        </mxCell>
        <mxCell id="FPELU7GVqC2fOOw68aCO-4" value="G" style="text;html=1;strokeColor=none;fillColor=none;align=center;verticalAlign=middle;whiteSpace=wrap;rounded=0;" parent="1" vertex="1">
          <mxGeometry x="370" y="40" width="60" height="30" as="geometry" />
        </mxCell>
        <mxCell id="FPELU7GVqC2fOOw68aCO-5" value="B" style="text;html=1;strokeColor=none;fillColor=none;align=center;verticalAlign=middle;whiteSpace=wrap;rounded=0;" parent="1" vertex="1">
          <mxGeometry x="430" y="40" width="60" height="30" as="geometry" />
        </mxCell>
        <mxCell id="FPELU7GVqC2fOOw68aCO-6" value="Gelb Ambiente" style="text;html=1;strokeColor=none;fillColor=none;align=center;verticalAlign=middle;whiteSpace=wrap;rounded=0;" parent="1" vertex="1">
          <mxGeometry x="170" y="40" width="60" height="40" as="geometry" />
        </mxCell>
        <mxCell id="FPELU7GVqC2fOOw68aCO-17" value="Preset" style="ellipse;whiteSpace=wrap;html=1;aspect=fixed;" parent="1" vertex="1">
          <mxGeometry x="80" y="105" width="50" height="50" as="geometry" />
        </mxCell>
        <mxCell id="FPELU7GVqC2fOOw68aCO-20" value="Atombombe" style="ellipse;whiteSpace=wrap;html=1;aspect=fixed;" parent="1" vertex="1">
          <mxGeometry x="80" y="165" width="50" height="50" as="geometry" />
        </mxCell>
        <mxCell id="FPELU7GVqC2fOOw68aCO-25" value="&lt;h1&gt;Preset programmieren&lt;/h1&gt;&lt;p&gt;Ich drücke den Preset knopf, dann wird keine meiner aktionen mehr nach außen gegeben und alle aktionen werden &#39;zwischengespeichert&#39;, dann drücke ich den Preset knopf erneut und halte gedrückt, NICHTS was ich mache wird dargestellt oder zwischengespeichert, der &#39;ATOMBOMBE&#39; knopf aktiviert dann das Preset. Geplant ist, dass es nur EINEN Speicherplatz gibt. (Mit erweiterungspotential für später.)&lt;/p&gt;" style="text;html=1;strokeColor=none;fillColor=none;spacing=5;spacingTop=-20;whiteSpace=wrap;overflow=hidden;rounded=0;" parent="1" vertex="1">
          <mxGeometry x="1370" y="65" width="190" height="285" as="geometry" />
        </mxCell>
        <mxCell id="FPELU7GVqC2fOOw68aCO-27" value="" style="rounded=0;whiteSpace=wrap;html=1;" parent="1" vertex="1">
          <mxGeometry x="195" y="350" width="40" height="30" as="geometry" />
        </mxCell>
        <mxCell id="FPELU7GVqC2fOOw68aCO-28" value="" style="rounded=0;whiteSpace=wrap;html=1;" parent="1" vertex="1">
          <mxGeometry x="180" y="360" width="40" height="10" as="geometry" />
        </mxCell>
        <mxCell id="FPELU7GVqC2fOOw68aCO-29" value="Auto" style="text;html=1;strokeColor=none;fillColor=none;align=center;verticalAlign=middle;whiteSpace=wrap;rounded=0;" parent="1" vertex="1">
          <mxGeometry x="130" y="350" width="60" height="30" as="geometry" />
        </mxCell>
        <mxCell id="FPELU7GVqC2fOOw68aCO-31" value="Solo" style="text;html=1;strokeColor=none;fillColor=none;align=center;verticalAlign=middle;whiteSpace=wrap;rounded=0;" parent="1" vertex="1">
          <mxGeometry x="225" y="350" width="60" height="30" as="geometry" />
        </mxCell>
        <mxCell id="FPELU7GVqC2fOOw68aCO-32" value="&lt;h1&gt;Automodus&lt;/h1&gt;&lt;div&gt;SOLO: Das Preset, das ich drücke, wird sofort auf alles eingestellelte übernommen.&lt;/div&gt;&lt;div&gt;&lt;br&gt;&lt;/div&gt;&lt;div&gt;AUTO: Presets werden für Lichter aktiviert und der Automodus wechselt zwischen den Presets für das Licht. Die für ein Licht jeweils aktiven Presets werden bei Auswahl des Lichtes durch die LED im Preset Button dargestellt.&lt;/div&gt;" style="text;html=1;strokeColor=none;fillColor=none;spacing=5;spacingTop=-20;whiteSpace=wrap;overflow=hidden;rounded=0;" parent="1" vertex="1">
          <mxGeometry x="1160" y="75" width="190" height="285" as="geometry" />
        </mxCell>
        <mxCell id="FPELU7GVqC2fOOw68aCO-33" value="" style="ellipse;whiteSpace=wrap;html=1;aspect=fixed;" parent="1" vertex="1">
          <mxGeometry x="510" y="270" width="40" height="40" as="geometry" />
        </mxCell>
        <mxCell id="FPELU7GVqC2fOOw68aCO-34" value="" style="ellipse;whiteSpace=wrap;html=1;aspect=fixed;" parent="1" vertex="1">
          <mxGeometry x="560" y="270" width="40" height="40" as="geometry" />
        </mxCell>
        <mxCell id="FPELU7GVqC2fOOw68aCO-35" value="" style="ellipse;whiteSpace=wrap;html=1;aspect=fixed;" parent="1" vertex="1">
          <mxGeometry x="610" y="270" width="40" height="40" as="geometry" />
        </mxCell>
        <mxCell id="FPELU7GVqC2fOOw68aCO-36" value="" style="ellipse;whiteSpace=wrap;html=1;aspect=fixed;" parent="1" vertex="1">
          <mxGeometry x="660" y="270" width="40" height="40" as="geometry" />
        </mxCell>
        <mxCell id="FPELU7GVqC2fOOw68aCO-37" value="" style="ellipse;whiteSpace=wrap;html=1;aspect=fixed;" parent="1" vertex="1">
          <mxGeometry x="710" y="270" width="40" height="40" as="geometry" />
        </mxCell>
        <mxCell id="FPELU7GVqC2fOOw68aCO-38" value="Alle" style="text;html=1;strokeColor=none;fillColor=none;align=center;verticalAlign=middle;whiteSpace=wrap;rounded=0;" parent="1" vertex="1">
          <mxGeometry x="500" y="240" width="60" height="30" as="geometry" />
        </mxCell>
        <mxCell id="FPELU7GVqC2fOOw68aCO-39" value="LED Au." style="text;html=1;strokeColor=none;fillColor=none;align=center;verticalAlign=middle;whiteSpace=wrap;rounded=0;" parent="1" vertex="1">
          <mxGeometry x="550" y="240" width="60" height="30" as="geometry" />
        </mxCell>
        <mxCell id="FPELU7GVqC2fOOw68aCO-40" value="LED In." style="text;html=1;strokeColor=none;fillColor=none;align=center;verticalAlign=middle;whiteSpace=wrap;rounded=0;" parent="1" vertex="1">
          <mxGeometry x="600" y="240" width="60" height="30" as="geometry" />
        </mxCell>
        <mxCell id="FPELU7GVqC2fOOw68aCO-41" value="M Head" style="text;html=1;strokeColor=none;fillColor=none;align=center;verticalAlign=middle;whiteSpace=wrap;rounded=0;" parent="1" vertex="1">
          <mxGeometry x="650" y="240" width="60" height="30" as="geometry" />
        </mxCell>
        <mxCell id="FPELU7GVqC2fOOw68aCO-42" value="Stage" style="text;html=1;strokeColor=none;fillColor=none;align=center;verticalAlign=middle;whiteSpace=wrap;rounded=0;" parent="1" vertex="1">
          <mxGeometry x="700" y="240" width="60" height="30" as="geometry" />
        </mxCell>
        <mxCell id="FPELU7GVqC2fOOw68aCO-43" value="&lt;h1&gt;Fabwahlüber-&lt;/h1&gt;&lt;h1&gt;nahmebutton&lt;/h1&gt;&lt;div&gt;Farbe in einem Preset wird erst übernommen, wenn der button aktiviert wird. Der button bleibt aktiviert, bis ich das Licht wechsle.&lt;/div&gt;" style="text;html=1;strokeColor=none;fillColor=none;spacing=5;spacingTop=-20;whiteSpace=wrap;overflow=hidden;rounded=0;" parent="1" vertex="1">
          <mxGeometry x="940" y="75" width="190" height="285" as="geometry" />
        </mxCell>
        <mxCell id="FPELU7GVqC2fOOw68aCO-45" value="&lt;h1&gt;Die Licht buttons&lt;/h1&gt;&lt;div&gt;Die Licht Buttons werden mit einer LED versehen und es wird dargestellt, wann welches Licht aktiv ist. Ist ein Licht aktiv, kann etwas dafür verändert werden, ansonsten nicht.&lt;/div&gt;" style="text;html=1;strokeColor=none;fillColor=none;spacing=5;spacingTop=-20;whiteSpace=wrap;overflow=hidden;rounded=0;" parent="1" vertex="1">
          <mxGeometry x="840" y="260" width="190" height="285" as="geometry" />
        </mxCell>
        <mxCell id="FPELU7GVqC2fOOw68aCO-46" value="On/Off" style="ellipse;whiteSpace=wrap;html=1;aspect=fixed;" parent="1" vertex="1">
          <mxGeometry x="260" y="390" width="50" height="50" as="geometry" />
        </mxCell>
        <mxCell id="FPELU7GVqC2fOOw68aCO-51" value="Fabwahlübernahme" style="ellipse;whiteSpace=wrap;html=1;aspect=fixed;" parent="1" vertex="1">
          <mxGeometry x="375" y="-10" width="50" height="50" as="geometry" />
        </mxCell>
        <mxCell id="FPELU7GVqC2fOOw68aCO-52" value="Strobo" style="ellipse;whiteSpace=wrap;html=1;aspect=fixed;" parent="1" vertex="1">
          <mxGeometry x="720" y="460" width="60" height="60" as="geometry" />
        </mxCell>
        <mxCell id="FPELU7GVqC2fOOw68aCO-53" value="Mega Flash" style="ellipse;whiteSpace=wrap;html=1;aspect=fixed;" parent="1" vertex="1">
          <mxGeometry x="640" y="460" width="60" height="60" as="geometry" />
        </mxCell>
        <mxCell id="FPELU7GVqC2fOOw68aCO-54" value="LED Flash" style="ellipse;whiteSpace=wrap;html=1;aspect=fixed;" parent="1" vertex="1">
          <mxGeometry x="560" y="460" width="60" height="60" as="geometry" />
        </mxCell>
        <mxCell id="FPELU7GVqC2fOOw68aCO-55" value="" style="rounded=0;whiteSpace=wrap;html=1;" parent="1" vertex="1">
          <mxGeometry x="195" y="470" width="40" height="30" as="geometry" />
        </mxCell>
        <mxCell id="FPELU7GVqC2fOOw68aCO-56" value="" style="rounded=0;whiteSpace=wrap;html=1;" parent="1" vertex="1">
          <mxGeometry x="180" y="480" width="40" height="10" as="geometry" />
        </mxCell>
        <mxCell id="FPELU7GVqC2fOOw68aCO-58" value="Tempo&lt;br&gt;" style="text;html=1;strokeColor=none;fillColor=none;align=center;verticalAlign=middle;whiteSpace=wrap;rounded=0;" parent="1" vertex="1">
          <mxGeometry x="185" y="490" width="60" height="30" as="geometry" />
        </mxCell>
        <mxCell id="FPELU7GVqC2fOOw68aCO-60" value="Flasht nur das ausgewählte" style="ellipse;whiteSpace=wrap;html=1;aspect=fixed;" parent="1" vertex="1">
          <mxGeometry x="470" y="460" width="65" height="65" as="geometry" />
        </mxCell>
        <mxCell id="FPELU7GVqC2fOOw68aCO-61" value="" style="ellipse;whiteSpace=wrap;html=1;aspect=fixed;" parent="1" vertex="1">
          <mxGeometry x="760" y="270" width="40" height="40" as="geometry" />
        </mxCell>
        <mxCell id="FPELU7GVqC2fOOw68aCO-62" value="Laser" style="text;html=1;strokeColor=none;fillColor=none;align=center;verticalAlign=middle;whiteSpace=wrap;rounded=0;" parent="1" vertex="1">
          <mxGeometry x="750" y="240" width="60" height="30" as="geometry" />
        </mxCell>
        <mxCell id="FPELU7GVqC2fOOw68aCO-68" value="Preset" style="ellipse;whiteSpace=wrap;html=1;aspect=fixed;" parent="1" vertex="1">
          <mxGeometry x="80" y="225" width="50" height="50" as="geometry" />
        </mxCell>
        <mxCell id="FPELU7GVqC2fOOw68aCO-69" value="Atombombe" style="ellipse;whiteSpace=wrap;html=1;aspect=fixed;" parent="1" vertex="1">
          <mxGeometry x="80" y="285" width="50" height="50" as="geometry" />
        </mxCell>
        <mxCell id="FPELU7GVqC2fOOw68aCO-70" value="Preset" style="ellipse;whiteSpace=wrap;html=1;aspect=fixed;" parent="1" vertex="1">
          <mxGeometry x="80" y="345" width="50" height="50" as="geometry" />
        </mxCell>
        <mxCell id="FPELU7GVqC2fOOw68aCO-71" value="Atombombe" style="ellipse;whiteSpace=wrap;html=1;aspect=fixed;" parent="1" vertex="1">
          <mxGeometry x="80" y="405" width="50" height="50" as="geometry" />
        </mxCell>
      </root>
    </mxGraphModel>
  </diagram>
</mxfile>
